<svg width="256" height="60" viewBox="0 0 256 60" fill="none" xmlns="http://www.w3.org/2000/svg">
<mask id="mask0_5_20" style="mask-type:alpha" maskUnits="userSpaceOnUse" x="0" y="1" width="59" height="56">
<path d="M0.735245 1.5561H58.0222V56.8023H0.735245V1.5561Z" fill="white"/>
</mask>
<g mask="url(#mask0_5_20)">
<path fill-rule="evenodd" clip-rule="evenodd" d="M55.8954 32.0225L55.8529 32.0868L55.8893 32.0941L55.8954 32.0225ZM51.9716 26.9559C50.4769 25.5521 48.8208 24.5294 47.6657 23.9045L47.6888 23.9737C48.145 24.2406 48.7444 24.6349 49.3874 25.1724C52.5577 27.8088 54.0245 31.6052 54.0245 31.6052L55.7959 32.0711C55.6017 31.6682 54.3666 29.2162 51.9716 26.9583V26.9559ZM53.834 22.1938C53.1838 21.8032 52.501 21.4695 51.7933 21.1965C48.5053 19.8607 43.2203 20.3642 43.2203 20.3642L36.8228 20.8762C36.5959 21.2924 36.3702 21.694 36.1518 22.0737L46.8771 21.1055C46.8771 21.1055 51.0581 20.6263 53.834 22.1938ZM27.3677 44.4379L26.9455 45.912C32.1056 45.6548 36.8021 44.5253 40.5839 42.5307C40.8532 42.3875 41.1165 42.2431 41.3737 42.0975L38.7567 37.3415L37.0703 37.6764L38.9872 41.2021C38.5298 41.4521 38.053 41.6947 37.5495 41.9301C34.7541 43.2356 31.0294 44.046 27.3653 44.4379H27.3677ZM28.7424 13.7264C28.9086 10.402 28.1952 9.48846 28.1952 9.48846C28.1952 9.48846 28.1988 10.544 27.9149 11.8119C27.705 12.7546 27.3374 13.8138 26.6944 14.6436C25.1936 16.5897 24.6124 17.1345 24.6124 19.9808L23.9657 19.9687L20.4108 33.7259L17.4565 31.997L23.4464 19.9614L21.0308 19.9226L20.8816 5.59022L18.9755 4.35147C18.9755 4.35147 24.1987 1.072 29.6766 1.81088C23.1553 0.597612 16.4823 4.15977 16.4823 4.15977L18.3325 5.18256L18.5715 18.4254L20.1791 19.4458L8.21991 42.0781C6.43155 41.3744 5.06177 40.5858 2.8888 39.4089L0.735245 43.8131L0.797122 43.8373L4.21126 45.9897L6.12823 41.9495C8.70764 43.221 9.4441 43.5389 11.4169 44.12L11.4593 44.0351H11.4618L14.6612 37.6072L18.3592 39.7268L18.796 39.9755L17.641 44.4525C17.0367 44.3857 16.4346 44.3003 15.8356 44.1965L15.32 45.1149C15.9933 45.2484 16.68 45.3661 17.3752 45.4656L16.2178 49.9595L15.8562 51.3475C13.642 50.9896 12.2747 50.622 9.47928 49.5446L8.05976 54.2448C8.33032 54.3879 8.58753 54.5226 8.83382 54.6476L12.4979 56.8023L13.8495 51.9881C15.8477 52.6615 17.9989 53.1735 20.2701 53.4889L28.2898 18.2471C28.5149 16.7485 28.666 15.2398 28.7424 13.7264ZM55.0521 36.8513C54.3691 38.067 53.709 39.1468 52.992 40.1478L53.8643 42.8121C55.4625 41.2565 56.8594 39.5067 58.0222 37.6036L55.0521 36.8513ZM43.0323 36.4861L46.9705 43.6335L47.7301 45.0094L47.8635 45.0822C47.7834 45.138 47.7094 45.1914 47.6245 45.246C42.1065 48.9222 35.5913 51.5307 28.5458 52.0075C27.4248 52.0803 26.3001 52.1203 25.1754 52.1252L24.6816 53.8602C27.1422 53.9194 29.6035 53.7697 32.0388 53.4125C39.1522 52.3824 45.3569 49.6999 49.8824 46.1656C50.0256 46.054 50.1724 45.9424 50.3119 45.8295C50.3665 45.7907 50.3992 45.7555 50.4454 45.7143L45.1434 36.0639L43.0323 36.4861Z" fill="#4FB847"/>
</g>
<path fill-rule="evenodd" clip-rule="evenodd" d="M16.9348 45.5638C16.248 45.4656 15.5639 45.3495 14.8832 45.2156L15.4 44.3008L17.9115 39.836L14.2292 37.7249L11.0383 44.137L10.9959 44.2219C9.03037 43.6444 8.29634 43.3241 5.72664 42.0575L3.81937 46.0892L3.81573 46.0964C7.91295 48.3228 12.2989 49.4633 15.7762 50.0493L16.9348 45.5638ZM57.4483 37.6812L57.4253 37.7176C56.2666 39.6167 54.8751 41.3636 53.2832 42.9177L52.4121 40.2582L47.1295 24.1229L47.1076 24.0538C48.2578 24.6798 49.9079 25.6965 51.3978 27.0966C53.7843 29.3509 55.0133 31.7993 55.2062 32.2009L55.2341 32.2567L55.2632 32.213L55.3069 32.1523L58.2406 27.8452C58.2406 27.8452 56.1028 23.9992 53.3269 22.3879L53.2516 22.3467C50.4854 20.7816 46.3202 21.2608 46.3202 21.2608L35.6374 22.2254C36.3309 21.0191 36.9836 19.7897 37.5944 18.5394C39.4568 14.6461 39.7152 7.13107 33.0519 3.30563C31.8599 2.62457 30.5457 2.1843 29.184 2.00986C23.7267 1.27825 18.5266 4.54074 18.5266 4.54074L20.423 5.77949L20.5734 20.0791L22.9793 20.1179L17.0113 32.1256L19.9559 33.8521L23.4986 20.1252L24.1417 20.1373C24.1417 17.2971 24.7216 16.7523 26.2163 14.8123C26.8569 13.9824 27.2209 12.9281 27.4296 11.9866C27.7123 10.7211 27.7111 9.6668 27.7111 9.6668C27.7111 9.6668 28.4209 10.578 28.2571 13.8963C28.1819 15.4072 28.0317 16.9136 27.8069 18.4096L19.8163 53.569C17.6422 53.2719 15.5006 52.7715 13.42 52.0742L12.0745 56.8776L12.0708 56.8836C15.1319 57.8691 18.2956 58.5012 21.5004 58.7678C24.9922 59.0578 28.6489 58.9547 32.3616 58.416C40.5657 57.2112 47.7616 54.0822 53.1073 49.7435C56.155 47.2721 58.6119 44.387 60.2619 41.2385L57.4483 37.6812ZM26.8861 44.5374L28.3347 39.4392L36.5534 37.7928L38.2314 37.458L40.8399 42.2031C40.5815 42.3487 40.3218 42.493 40.0513 42.6338C36.2865 44.626 31.6057 45.7519 26.4663 46.0127L26.8861 44.5374ZM49.7441 45.9278C49.6045 46.0406 49.459 46.1498 49.3146 46.2627C44.8061 49.7896 38.6257 52.4637 31.539 53.4925C29.1125 53.8491 26.6602 53.9989 24.2084 53.9402L24.701 52.2077L25.1402 50.6668C31.4674 50.4582 37.2607 49.0265 42.2994 46.3646C43.7426 45.6062 45.1193 44.7275 46.4149 43.7379L42.4911 36.6038L44.5925 36.184L49.8775 45.815C49.8302 45.8514 49.795 45.8902 49.7441 45.9278ZM85.9189 25.7487H81.7562L80.6121 21.5314H74.8345L73.6625 25.7487H69.4973L75.7457 1.90187H79.7628L85.9189 25.7487ZM79.5845 17.3468L77.71 8.50813L75.833 17.3468H79.5869H79.5845ZM93.9423 1.90187C99.6641 1.90187 102.342 3.97657 102.342 9.02498V11.2259C102.342 16.1517 99.5719 18.4448 93.9423 18.4448H92.3092V25.7499H87.9742V1.90187H93.9423ZM93.9423 14.3221C97.0179 14.3221 98.0347 13.269 98.0347 11.0075V9.24337C98.0347 6.98184 97.2958 5.80618 94.0042 5.80618H92.2813V14.3221H93.9423ZM105.421 1.90066H109.471V7.53023L108.998 17.6441L115.737 1.90187H119.79V25.7487H115.737V19.6557L116.093 10.5925L109.38 25.7487H105.419L105.421 1.90187V1.90066ZM133.048 25.7475V22.7519H132.225C126.641 22.7519 123.894 20.6433 123.894 15.7501V11.841C123.894 6.85808 126.549 4.84042 132.225 4.84042H133.079V1.90066H137.29V4.83678H138.144C143.787 4.83678 146.472 6.85566 146.472 11.8373V15.7501C146.472 20.642 143.696 22.7519 138.144 22.7519H137.32V25.7475H133.048ZM133.079 8.56758H132.163C128.931 8.56758 128.166 9.81967 128.166 12.0812V15.5378C128.166 17.7678 129.202 18.8998 132.225 18.8998H133.079V8.56758ZM138.142 18.8998C141.196 18.8998 142.203 17.7678 142.203 15.5378V12.08C142.203 9.81967 141.469 8.56637 138.204 8.56637H137.289V18.8998H138.144H138.142ZM158.838 20.1118L154.241 10.5112L154.722 17.3238V25.7475H150.578V1.90187H154.573L159.288 12.4634L164.034 1.90066H168.025V25.7475H163.882V17.3238L164.363 10.5112L159.768 20.1118H158.838ZM185.065 1.90066V5.61327H176.161V11.7354H183.751V15.573H176.161V21.8505H185.474V25.7536H172.133V1.90066L185.065 1.90309V1.90066ZM199.843 5.70062H195.191V25.7475H191.183V5.70184H186.5V1.90066H199.843V5.70062ZM202.922 1.90066H206.971V7.53023L206.499 17.6441L213.238 1.90187H217.289V25.7487H213.238V19.6557L213.593 10.5925L206.881 25.7487H202.919L202.922 1.90187V1.90066ZM233.604 25.7475L227.344 15.795H225.669V25.7475H221.395V1.96132H225.703V11.5462H226.755C228.553 11.5462 229.017 9.9131 229.543 8.28004C230.598 4.8295 231.651 1.40807 237.911 1.96254L237.601 5.90809C234.348 5.75279 234.318 6.76951 233.48 9.45084C232.892 11.3617 232.272 12.962 231.127 13.98L238.843 25.7499H233.604V25.7475Z" fill="#0078BF"/>
<path fill-rule="evenodd" clip-rule="evenodd" d="M255.264 25.7487H251.098L249.959 21.5314H244.179L243.007 25.7487H238.842L245.089 1.90187H249.106L255.264 25.7487ZM248.929 17.3468L247.053 8.50813L245.175 17.3468H248.931H248.929Z" fill="#0078BF"/>
<path fill-rule="evenodd" clip-rule="evenodd" d="M71.134 51.8352C72.8605 49.82 73.1626 45.7531 73.1626 43.2162V31.9704H85.8534V51.8352H87.9742V58.9268H84.0347V55.566H73.4356V58.9268H69.4985V51.8352H71.134ZM77.2513 43.2162C77.2513 45.815 76.7976 49.5749 75.3137 51.8364H81.704V35.7279H77.2513V43.2162ZM90.0258 48.8372V38.9467C90.0258 34.0014 92.1272 31.9704 97.6343 31.9704C103.141 31.9704 105.421 34.0026 105.421 38.9491V48.8372C105.421 53.6624 103.052 55.8172 97.6343 55.8172C92.2158 55.8172 90.0258 53.6624 90.0258 48.8372ZM101.336 48.6273V39.1602C101.336 37.0345 100.802 35.6708 97.6355 35.6708C94.6727 35.6708 94.1097 37.0345 94.1097 39.1602V48.6261C94.1097 50.8391 94.6727 52.1155 97.6343 52.1155C100.595 52.1155 101.335 50.8391 101.335 48.6261L101.336 48.6273ZM122.02 35.8941H113.6V41.0201H115.773C120.889 41.0201 123.894 42.7503 123.894 48.4029C123.894 54.0871 120.889 55.816 115.773 55.816H109.527V31.9704H122.02V35.8941ZM115.835 44.9111H113.602V51.9238H115.835C118.45 51.9238 119.494 51.214 119.494 48.4005C119.494 45.6209 118.45 44.9111 115.835 44.9111ZM132.942 31.9704C138.663 31.9704 141.341 34.045 141.341 39.0922V41.2943C141.341 46.2178 138.572 48.5097 132.942 48.5097H131.312V55.816H126.971V31.9704H132.942ZM132.942 44.3882C136.017 44.3882 137.034 43.3363 137.034 41.0759V39.3106C137.034 37.0491 136.296 35.8734 133.004 35.8734H131.281V44.3882H132.942ZM158.789 55.816H154.628L153.484 51.5974H147.707L146.534 55.816H142.369L148.616 31.9704H152.633L158.79 55.816H158.789ZM152.453 47.4141L150.578 38.5754L148.702 47.4141H152.456H152.453Z" fill="#4FB847"/>
<path fill-rule="evenodd" clip-rule="evenodd" d="M167.152 33.0065L167.696 33.6495C167.198 34.2198 166.74 34.2003 166.042 34.261C164.822 34.352 164.813 34.75 164.813 35.9596C165.104 35.5143 165.63 35.3299 166.1 35.3299C167.491 35.3299 168.025 36.1452 168.025 37.6218V39.0401C168.025 40.6695 167.453 41.3016 165.979 41.3016C164.502 41.3016 163.919 40.6695 163.919 39.0401V35.9717C163.919 34.3108 164.22 33.5064 166.007 33.3644C166.429 33.3231 166.879 33.2904 167.152 33.0065ZM164.811 39.0401C164.801 40.109 165.205 40.3747 165.977 40.3747C166.737 40.3747 167.132 40.109 167.132 39.0401V37.6436C167.132 36.5322 166.764 36.2568 165.977 36.2568C165.319 36.2568 164.82 36.5213 164.82 37.5914L164.811 39.0401ZM169.052 40.3104C170.384 40.2364 170.299 38.3206 170.31 37.35L170.342 35.08H174.183V41.2676H173.143V36.0275H171.376L171.339 37.3609C171.297 39.1711 171.179 41.2591 169.052 41.3016V40.3104ZM179.315 41.2482H178.471L178.392 40.4232C178.186 40.8721 177.625 41.3004 176.929 41.3004C175.611 41.3004 175.288 40.5591 175.219 39.8384C175.122 38.7635 175.809 37.9906 176.988 37.8135C177.438 37.7431 177.921 37.7297 178.371 37.72V37.1255C178.371 36.4388 178.147 35.9863 177.282 35.9863C176.742 35.9863 176.366 36.1865 176.378 37.0127H175.466C175.424 35.6538 176.094 35.08 177.312 35.08C178.568 35.08 179.315 35.6429 179.315 37.1255V41.2507V41.2482ZM177.065 38.6518C176.428 38.7974 176.094 39.1177 176.163 39.7159C176.2 40.1927 176.604 40.3504 177.028 40.3504C178.057 40.3504 178.362 39.5472 178.392 38.5451C178.126 38.5451 177.556 38.5366 177.065 38.6518ZM181.367 41.3016V35.08H184.446V36.0312H182.294V41.3016H181.367ZM184.446 38.9964V37.2711C184.446 35.6696 185.235 35.08 186.498 35.08C187.764 35.08 188.553 35.6696 188.553 37.2711V38.9976C188.553 40.6392 187.951 41.3028 186.498 41.3028C185.018 41.3028 184.446 40.638 184.446 38.9964ZM187.66 38.9964V37.2711C187.66 36.1768 187.239 35.9584 186.498 35.9584C185.758 35.9584 185.336 36.1768 185.336 37.2711V38.9976C185.336 40.092 185.703 40.4438 186.498 40.4438C187.324 40.4438 187.663 40.092 187.663 38.9976L187.66 38.9964ZM193.684 35.08V36.0227H192.129V41.3016H191.136V36.0227H189.58V35.08H193.684ZM194.708 35.08H196.749C197.693 35.08 198.516 35.5726 198.516 36.6851C198.516 37.2723 198.367 37.6679 197.838 37.9105C198.467 38.1483 198.816 38.6943 198.816 39.4101C198.816 40.809 197.96 41.3028 196.738 41.3028H194.71V35.0788L194.708 35.08ZM195.634 35.9887V37.5708H196.766C197.264 37.5708 197.582 37.2918 197.582 36.7798C197.582 36.2459 197.235 35.9887 196.749 35.9887H195.634ZM196.766 40.371C197.613 40.371 197.87 40.018 197.87 39.4004C197.87 38.6494 197.412 38.4262 196.777 38.4262H195.654V40.371H196.766ZM199.841 38.9964V37.2711C199.841 35.6696 200.629 35.08 201.893 35.08C203.161 35.08 203.947 35.6696 203.947 37.2711V38.9976C203.947 40.6392 203.348 41.3028 201.893 41.3028C200.414 41.3028 199.841 40.638 199.841 38.9964ZM203.055 38.9964V37.2711C203.055 36.1768 202.636 35.9584 201.893 35.9584C201.153 35.9584 200.731 36.1768 200.731 37.2711V38.9976C200.731 40.092 201.1 40.4438 201.893 40.4438C202.719 40.4438 203.058 40.092 203.058 38.9976L203.055 38.9964ZM205.999 35.1139H206.756L206.867 35.9256C207.037 35.3857 207.597 35.08 208.236 35.08C209.341 35.08 210.104 35.6393 210.104 37.31V38.9369C210.104 40.6064 209.398 41.3356 208.236 41.3356C207.641 41.3356 207.207 41.2422 206.905 40.7957V43.3751H205.999V35.1115V35.1139ZM208.039 40.3625C208.843 40.3625 209.209 40.0046 209.209 38.9163V37.299C209.209 36.2835 208.843 36.0202 208.105 36.0202C207.341 36.0518 206.905 36.4206 206.905 37.6387V38.9685C206.905 40.0253 207.236 40.3625 208.039 40.3625ZM214.273 35.08H215.237V41.3016H214.359V36.7713L212.084 41.3016H211.132V35.08H212.019V39.5776L214.273 35.08ZM220.369 35.08V36.0227H218.812V41.3016H217.822V36.0227H216.263V35.08H220.369ZM225.479 39.4574C225.479 40.6416 224.891 41.3016 223.446 41.3016C221.964 41.3016 221.394 40.7047 221.394 39.0583V37.2675C221.394 35.666 222.183 35.08 223.446 35.08C224.69 35.08 225.5 35.6769 225.5 37.2687V38.5778H222.286V39.0389C222.286 40.1284 222.648 40.3795 223.446 40.3795C224.244 40.3795 224.604 40.0871 224.604 39.4574H225.479ZM222.287 37.7079H224.635V37.2687C224.635 36.1901 224.16 35.9608 223.446 35.9608C222.736 35.9608 222.287 36.1792 222.287 37.2675V37.7079ZM226.526 40.3104C227.858 40.2364 227.773 38.3206 227.785 37.35L227.817 35.08H231.657V41.2676H230.616V36.0275H228.848L228.817 37.3609C228.772 39.1711 228.652 41.2591 226.526 41.3016V40.3104ZM233.654 36.9981H234.685C236.022 36.9981 236.79 37.5635 236.79 39.159C236.79 40.735 236.254 41.3016 234.685 41.3016H232.685V35.08H233.656V36.9969L233.654 36.9981ZM234.685 40.371C235.598 40.371 235.829 40.0155 235.829 39.1578C235.829 38.2624 235.616 37.9081 234.685 37.9081H233.654V40.371H234.685ZM238.718 37.5635H241.016V35.0812H241.921V41.3016H241.019V38.5062H238.719V41.3016H237.815V35.08H238.718V37.5635ZM244.95 36.9981H245.989C247.335 36.9981 248.104 37.5635 248.104 39.159C248.104 40.735 247.567 41.3016 245.989 41.3016H243.973V35.08H244.95V36.9981ZM245.989 40.371C246.904 40.371 247.138 40.0155 247.138 39.1578C247.138 38.2624 246.924 37.9081 245.989 37.9081H244.95V40.371H245.989ZM249.155 41.3016H250.131V35.08H249.155V41.3016ZM254.299 35.0909H255.262V41.3028H254.385V36.7798L252.113 41.3016H251.159V35.0909H252.047V39.58L254.299 35.0909ZM251.764 33.0065H252.524C252.532 33.5415 252.822 33.6592 253.234 33.6592C253.645 33.6592 253.916 33.5415 253.925 33.0065H254.71C254.691 34.0984 254.093 34.4624 253.234 34.4624C252.393 34.4624 251.775 34.0984 251.764 33.0065ZM167.044 55.816V53.2341C166.743 53.6394 166.231 53.7801 165.769 53.7801C164.443 53.7886 163.919 52.6154 163.919 51.3754V49.9013C163.919 48.5994 164.392 47.4796 165.769 47.4905C166.231 47.5087 166.741 47.6288 167.044 48.0316V45.451H167.989V48.034C168.271 47.6288 168.783 47.5111 169.235 47.4905C170.622 47.4784 171.104 48.5994 171.104 49.9037V51.3778C171.104 52.6154 170.563 53.7886 169.235 53.7801C168.783 53.7801 168.271 53.6394 167.989 53.2341V55.8184H167.044V55.816ZM167.044 51.4166V49.8588C167.044 49.0022 166.834 48.4587 165.972 48.4587C165.216 48.4587 164.865 48.8882 164.865 49.911V51.3633C164.865 52.3763 165.205 52.8058 165.972 52.8058C166.724 52.8058 167.044 52.4103 167.044 51.4166ZM170.149 51.3608V49.911C170.149 48.8858 169.807 48.4587 169.044 48.4587C168.191 48.4587 167.989 49.0022 167.989 49.8588V51.4166C167.989 52.4103 168.29 52.8058 169.044 52.8058C169.809 52.8058 170.149 52.3751 170.149 51.3608ZM172.13 51.4397V49.7132C172.13 48.1081 172.919 47.522 174.183 47.522C175.449 47.522 176.236 48.1093 176.236 49.7132V51.4397C176.236 53.0813 175.638 53.7425 174.183 53.7425C172.704 53.7425 172.13 53.0813 172.13 51.4397ZM175.345 51.4397V49.7132C175.345 48.6176 174.923 48.3992 174.183 48.3992C173.444 48.3992 173.022 48.6176 173.022 49.7132V51.4397C173.022 52.5353 173.387 52.8859 174.183 52.8859C175.009 52.8859 175.345 52.5341 175.345 51.4397ZM179.191 50.0056H181.489V47.522H182.395V53.7425H181.492V50.9483H179.194V53.7425H178.289V47.5233H179.191V50.0056ZM183.81 52.7015C184.153 52.3836 184.335 51.965 184.46 51.5125C184.571 51.0078 184.601 50.4206 184.601 49.8843L184.657 47.522H187.905V52.7015H188.552V54.7798H187.695V53.6248H184.278V54.7798H183.42V52.7015H183.81ZM187.01 52.7015V48.4551H185.543L185.515 49.8843C185.515 50.5043 185.457 51.134 185.315 51.7649C185.228 52.1031 185.076 52.4213 184.867 52.7015H187.01Z" fill="#D1D1D1"/>
</svg>
